<?xml version="1.0" encoding="UTF-8"?>
<svg id="Layer_2" data-name="Layer 2" xmlns="http://www.w3.org/2000/svg" viewBox="0 0 517.69 92.38">
  <defs>
    <style>
      .cls-1 {
        fill: #fff;
      }
    </style>
  </defs>
  <g id="Layer_1-2" data-name="Layer 1">
    <g>
      <g>
        <path class="cls-1" d="M146.9,75.39c-6.58,0-11.89-2.34-15.61-6.69l.21,22.72c0,.53-.42.96-.96.96h-14.33c-.53,0-.96-.42-.96-.96l.32-39.29-.32-31.54c0-.53.42-.96.96-.96h14.23c.53,0,.96.42.96.96l-.32,5.42c3.82-4.67,9.24-7.43,16.14-7.43,15.5,0,23.68,12.32,23.68,28.25s-9.13,28.56-24,28.56ZM142.44,64.67c8.07,0,12.21-5.84,12.21-16.99,0-12.11-4.14-18.26-11.89-18.26s-11.89,5.84-12,17.2c-.11,11.57,4.04,18.05,11.68,18.05Z"/>
        <path class="cls-1" d="M175.57,74.33c-.53,0-.96-.42-.96-.96l.42-26.44-.42-26.33c0-.53.42-.96.96-.96h14.02c.53,0,.96.42.96.96l-.42,8.28c4.25-6.48,11.57-9.66,19.54-9.66.85,0,1.7.11,2.44.21.53.11.96.64.96,1.17v9.88c0,.53-.42.85-.96.85-.64-.11-1.38-.11-2.02-.11-11.26,0-19.64,6.26-19.54,18.79v23.36c0,.53-.42.96-.96.96h-14.02Z"/>
        <path class="cls-1" d="M265.51,55.85c.53,0,.96.42.85.96-1.38,9.98-10.94,18.9-26.23,18.9-18.26,0-28.14-12-28.14-28.56,0-17.41,10.41-28.88,27.82-28.88s27.93,11.89,28.25,31.01c0,.53-.42.96-.96.96h-39.08c.64,10.3,4.67,14.87,12.32,14.87,5.31,0,9.13-2.44,10.62-8.28.11-.53.64-.96,1.17-.96h13.38ZM239.92,28.78c-6.37,0-10.19,3.82-11.47,11.36h22.41c-.64-5.84-3.93-11.36-10.94-11.36Z"/>
        <path class="cls-1" d="M301.08,48.53h-12.64l.32,24.85c0,.53-.42.96-.96.96h-14.65c-.53,0-.96-.42-.96-.96l.53-36.21-.53-36.21c0-.53.42-.96.96-.96h28.03c17.95,0,28.25,8.07,28.25,23.89s-10.62,24.64-28.35,24.64ZM301.82,11.79h-13.17l-.32,24.95h13.91c6.27,0,11.57-3.61,11.57-12.53s-4.35-12.42-12-12.42Z"/>
        <path class="cls-1" d="M360.65,30.05c-5.1,0-10.62,3.93-12.42,11.68l.42,31.64c0,.53-.42.96-.96.96h-13.91c-.53,0-.96-.42-.96-.96l.42-36.32-.42-36.1c0-.53.42-.96.96-.96h13.91c.53,0,.96.42.96.96l-.32,24.74c3.82-4.88,9.34-7.33,16.56-7.33,12.32,0,19.86,7.33,19.54,23.36v11.68l.32,19.96c0,.53-.42.96-.96.96h-14.33c-.53,0-.96-.42-.96-.96l.32-19.75-.11-13.81c-.11-6.58-3.72-9.77-8.07-9.77Z"/>
        <path class="cls-1" d="M390.48,14.33c-.53,0-.96-.42-.96-.96V.96c0-.53.42-.96.96-.96h14.23c.53,0,.96.42.96.96v12.42c0,.53-.42.96-.96.96h-14.23ZM390.48,74.33c-.53,0-.96-.42-.96-.96l.32-26.33-.32-26.44c0-.53.42-.96.96-.96h14.34c.53,0,.96.42.96.96l-.32,26.44.32,26.33c0,.53-.42.96-.96.96h-14.34Z"/>
        <path class="cls-1" d="M436.35,75.6c-15.93,0-26.12-6.48-26.65-18.69,0-.53.42-.96.96-.96h13.59c.53,0,.96.42.96.96.42,6.16,4.46,8.81,11.89,8.81,6.26,0,9.66-2.44,9.66-6.69,0-10.41-35.78-.32-35.78-23.26,0-11.36,9.13-17.41,23.89-17.41s24,5.73,24.95,17.2c.11.53-.32.96-.85.96h-12.96c-.53,0-.96-.42-1.06-.96-.85-4.67-3.82-7.54-10.3-7.54-5.2,0-8.5,1.91-8.5,6.58,0,10.41,35.78-.21,35.78,23.04,0,11.47-10.83,17.95-25.59,17.95Z"/>
        <path class="cls-1" d="M493.59,30.05c-5.1,0-10.62,3.93-12.42,11.68l.42,31.64c0,.53-.42.96-.96.96h-13.91c-.53,0-.96-.42-.96-.96l.42-36.32-.42-36.1c0-.53.42-.96.96-.96h13.91c.53,0,.96.42.96.96l-.32,24.74c3.82-4.88,9.34-7.33,16.56-7.33,12.32,0,19.86,7.33,19.54,23.36v11.68l.32,19.96c0,.53-.42.96-.96.96h-14.33c-.53,0-.96-.42-.96-.96l.32-19.75-.11-13.81c-.11-6.58-3.72-9.77-8.07-9.77Z"/>
      </g>
      <g>
        <path class="cls-1" d="M52.25,46.79h-8.37l.2-15h7.91c4.6,0,7.22,2.36,7.22,7.46,0,5.37-3.18,7.54-6.95,7.54Z"/>
        <path class="cls-1" d="M76.65,22.42l-.09,64.07c-.02,5.24-6.36,7.86-10.06,4.16l-22.36-22.41-.2-14.36h7.59c10.66,0,17.04-5.44,17.04-14.82s-6.19-14.36-16.97-14.36h-16.85c-.32,0-.59.25-.59.57l.32,21.77-.16,11.37L2.46,26.49c-3.71-3.71-1.08-10.04,4.16-10.04l64.14.09c3.25,0,5.88,2.63,5.88,5.88Z"/>
        <path class="cls-1" d="M33.26,55.08l-32.13-.71c-.99-.02-1.5,1.18-.8,1.88l32.8,32.84c.7.7,1.9.19,1.88-.8l-.67-32.13c-.01-.59-.49-1.06-1.08-1.08Z"/>
      </g>
    </g>
  </g>
</svg>